# xmcd CD Database Entry
#
# Track frame offsets:
# 150
# 16834
# 34535
# 51840
# 69629
# 84879
# 106465
# 123304
# 143491
# 160939
# 182300
# 196276
# 211988
# 230077
# 250131
# 266607
# 284039
# 302524
# 321737
# 341089
#
# Disc length: 4745 seconds
#
# Revision: 1
# Processed by: cddbd v1.4PL0 Copyright (c) Steve Scherf et al.
# Submitted via: tcd 2.0b
#
DISCID=1e128714
DTITLE=David Usher - Morning Orbit
DYEAR=1900
DGENRE=
TTITLE0=How Are You
TTITLE1=Too Close to the Sun
TTITLE2=Black Black Heart
TTITLE3=Alone in the Universe
TTITLE4=Butterfly
TTITLE5=Joy in Small Places
TTITLE6=A Day in the Life
TTITLE7=My Way Out
TTITLE8=Blinded
TTITLE9=Fast Car
TTITLE10=Closer
TTITLE11=Black Black Heart 2.0
TTITLE12=Resurrection
TTITLE13=Leave it Alone
TTITLE14=Forest Fire
TTITLE15=Push
TTITLE16=Tangerine
TTITLE17=St. Lawrence River
TTITLE18=Silver
TTITLE19=Jesus Was My Girl
EXTD=
EXTT0=
EXTT1=
EXTT2=
EXTT3=
EXTT4=
EXTT5=
EXTT6=
EXTT7=
EXTT8=
EXTT9=
EXTT10=
EXTT11=
EXTT12=
EXTT13=
EXTT14=
EXTT15=
EXTT16=
EXTT17=
EXTT18=
EXTT19=
PLAYORDER=
